<svg preserveAspectRatio="none" overflow="visible" style="display: block;" width="32.7514" height="45.4975" viewBox="0 0 32.7514 45.4975" fill="none" xmlns="http://www.w3.org/2000/svg">
<g id="Group">
<path id="Vector" d="M15.287 1.07911C15.45 1.16054 15.5111 1.22162 15.6741 1.26233C15.8167 1.30305 16.0204 1.40484 16.0612 1.28269C16.1223 1.16054 16.0408 0.997673 15.9389 0.855164C15.7759 0.590505 15.6945 0.52943 15.4703 0.162979C15.4296 0.0815459 15.3888 0.000112351 15.3074 0.000112351C15.3074 0.000112351 15.287 0.264771 15.2055 0.427638C15.1444 0.570147 14.9814 0.671939 15.0018 0.773731C15.0221 0.875523 15.124 0.997673 15.287 1.07911Z" fill="white"/>
<path id="Vector_2" d="M32.5218 18.5274C32.3384 18.7717 32.2569 19.2603 31.9921 19.6675C31.6253 20.2375 31.0956 20.9297 30.8308 20.9297C30.6882 20.9297 30.6474 20.604 30.6474 20.604C30.6474 20.604 30.464 20.0543 30.7696 19.3621C30.9938 18.8735 31.116 18.731 31.4012 18.3646C31.6661 18.0185 31.8291 17.8352 32.0124 17.4688C32.1754 17.1431 32.2162 17.082 32.318 16.573C32.3384 16.4509 32.2977 16.1862 32.1754 16.2066C32.0124 16.2066 31.5642 17.1838 31.0956 17.7334C30.6474 18.2424 29.8121 18.8939 29.8121 18.8939C29.8121 18.8939 29.7306 18.955 29.7306 18.7921C29.7102 18.6496 29.6898 18.222 29.7713 17.8352C29.8528 17.4484 29.9751 17.0616 30.3214 16.4712C30.7085 15.7994 31.1975 15.3312 31.442 15.0869C31.5438 14.9851 31.8494 14.8018 31.6865 14.7C31.5438 14.6186 31.116 14.9851 30.79 15.2294C30.3825 15.5347 30.2399 15.6162 29.8325 16.1048C29.425 16.5934 29.3231 16.797 29.3231 16.797C29.3231 16.797 28.936 17.4281 28.8342 18.0388C28.7323 18.6496 28.7323 18.9957 28.7323 18.9957C28.7323 18.9957 28.7323 19.5453 28.7934 19.8711C28.8342 20.2172 28.9768 20.7465 28.9768 20.7465C28.9768 20.7465 29.1805 21.3369 29.262 21.7033C29.3435 22.0698 29.4861 23.1488 29.4861 23.1488C29.4861 23.1488 29.588 23.9224 29.5269 24.6553C29.4657 25.3882 29.4046 25.8157 29.3231 26.0397C29.2416 26.2636 29.0175 26.854 28.6508 27.2612C28.3044 27.648 28.2229 27.7091 28.2229 27.7091C28.2229 27.7091 27.8562 28.0144 27.5506 28.1773C27.245 28.3402 26.7968 28.5437 26.5931 28.6048C26.3893 28.6455 26.1041 28.6659 26.0837 28.6659H25.8189L25.7374 28.6048L25.6966 28.442C25.6966 28.442 25.4929 27.648 25.2484 27.139C25.0447 26.7115 24.6168 26.1211 24.6168 26.1211C24.6168 26.1211 23.8834 25.1235 23.3129 24.5739C22.661 23.9224 21.9275 23.4338 21.4793 23.0877C21.3163 22.9656 20.9496 22.7416 20.9496 22.7416C20.9496 22.7416 19.4623 21.2554 18.9326 20.0747C18.5659 19.2603 18.3214 18.6699 18.4233 17.7742C18.4436 17.5706 18.5251 17.1838 18.5659 17.1838L18.8307 17.2652C18.8511 17.2856 19.0956 17.5095 19.3197 17.5909C19.4419 17.6317 19.6661 17.6724 19.6661 17.6724C19.6661 17.6724 19.8494 17.6927 19.9513 17.7131C20.0531 17.7538 20.2365 17.8149 20.3588 17.876C20.481 17.937 20.6644 18.0592 20.6644 18.0592L21.0107 18.3238L21.3774 18.6089C21.3774 18.6089 21.5812 18.7514 21.6423 18.7717C21.7034 18.7921 21.7442 18.8124 21.7645 18.8124H21.846C21.846 18.8124 21.9275 18.7921 21.9479 18.7107C21.9683 18.6089 21.846 18.6903 21.6627 18.4867C21.4589 18.3035 21.3774 18.1406 21.3774 18.1406C21.3774 18.1406 21.3367 17.9777 21.1737 17.7945C21.0107 17.6113 20.807 17.4484 20.807 17.4484C20.807 17.4484 20.6644 17.3466 20.4606 17.2856C20.2569 17.2245 20.1958 17.2245 20.1754 17.1431C20.155 17.0616 20.4199 17.1023 20.4199 17.1023C20.4199 17.1023 20.7255 17.1431 20.97 17.2652C21.2144 17.3874 21.3571 17.5299 21.3571 17.5299L21.52 17.6724L21.6219 17.7742L21.7238 17.8352C21.7238 17.8352 21.8256 17.937 21.846 17.7945C21.8664 17.6724 21.8256 17.5706 21.8053 17.5502L21.7034 17.4484L21.2959 17.1023C21.1737 16.9802 21.0922 16.8988 20.97 16.8173C20.8477 16.7359 20.6644 16.6137 20.4402 16.5323C20.2365 16.4509 20.1143 16.4712 19.9105 16.3694C19.7679 16.3084 19.6457 16.2676 19.5642 16.1455C19.5438 16.1251 19.4419 16.0437 19.6253 16.0844C19.8087 16.1251 19.9309 16.1862 20.1346 16.2269C20.4606 16.3084 20.6644 16.3084 20.97 16.4102C21.0922 16.4509 21.2552 16.5323 21.2552 16.5323L21.6423 16.6952C21.6423 16.6952 22.172 16.9802 22.5387 17.0005C22.9054 17.0209 23.2111 16.9395 23.3333 16.8784C23.4555 16.8377 23.6796 16.6952 23.7408 16.6341C23.8019 16.573 23.8426 16.5119 23.8426 16.5119L23.8834 16.4102V16.3287C23.7815 16.2066 23.5778 16.5323 23.2518 16.5934C22.9054 16.6545 22.9258 16.6952 22.7017 16.6545C22.4572 16.6137 22.3146 16.5527 22.1313 16.3694C21.8053 16.0641 21.683 15.779 21.2552 15.5958C21.0718 15.5144 20.7459 15.433 20.7459 15.433C20.7459 15.433 20.2976 15.2904 20.0531 15.1479C19.8698 15.0461 19.4827 14.9851 19.6049 14.8222C19.6661 14.7408 20.155 15.0258 20.5217 15.0665C20.7866 15.1072 20.97 15.0869 21.1737 15.0869C21.3774 15.0869 21.6627 15.0258 21.7034 15.0258C21.7442 15.0054 21.9071 15.0258 22.0498 15.0665C22.1924 15.1072 22.2739 15.1683 22.4165 15.2294C22.5591 15.2904 22.7221 15.3922 22.7628 15.3922L22.8443 15.4126L22.8851 15.3719L22.9054 15.3312L22.8851 15.2904L22.824 15.2497L22.7017 15.1683C22.7017 15.1683 22.5184 15.0665 22.3554 14.9036C22.1924 14.7408 22.0498 14.5575 21.8053 14.4761C21.5608 14.3947 21.2756 14.354 21.2756 14.354L20.9903 14.3336L20.8681 14.3132C20.8681 14.3132 20.6644 14.2522 20.8273 14.2114C20.9903 14.1707 21.0718 14.1504 21.1126 14.1504C21.1329 14.13 21.4182 14.1097 21.5812 14.1707C21.7442 14.2318 22.009 14.3743 22.0294 14.3743C22.0498 14.3947 22.2942 14.5779 22.5591 14.639C22.824 14.7001 23.1703 14.7204 23.1703 14.7204L23.3333 14.6797L23.4148 14.6593L23.4759 14.6186L23.4555 14.5168C23.4555 14.5168 23.4555 14.4354 23.3333 14.415C23.2111 14.3947 22.9666 14.354 22.7425 14.1911C22.5184 14.0282 22.3554 13.8654 22.3554 13.8654C22.3554 13.8654 22.1924 13.7228 21.8664 13.6414C21.5608 13.56 21.4589 13.56 21.4589 13.56L21.3571 13.5193L21.1329 13.4175C21.1329 13.4175 21.0311 13.3564 20.9496 13.2546C20.8681 13.1528 20.7459 12.9696 21.0922 13.0714C21.4386 13.1732 21.52 13.2342 21.52 13.2342C21.52 13.2342 21.7034 13.4175 21.8664 13.4378C21.9683 13.4582 22.0498 13.4785 22.1109 13.3971C22.2127 13.2953 21.9275 13.1732 21.7238 13.0307C21.5608 12.9289 21.3978 12.6642 21.3978 12.6642C21.3978 12.6642 21.2756 12.5624 21.4589 12.6031C21.6423 12.6439 21.9683 12.8474 21.9683 12.8474C21.9683 12.8474 22.1313 12.9289 22.2127 12.9492C22.2739 12.9696 22.4369 13.0714 22.5184 13.1121C22.5795 13.1325 22.7628 13.1732 22.8851 13.2342C23.0481 13.336 23.1296 13.4989 23.2111 13.56C23.2925 13.6211 23.3537 13.7228 23.4555 13.7432C23.5574 13.7636 23.5778 13.8043 23.6389 13.7636C23.7 13.7228 23.7204 13.7025 23.7204 13.7025C23.7204 13.7025 23.7408 13.6618 23.6389 13.6007C23.537 13.5396 23.4148 13.3768 23.4148 13.3768L23.374 13.2953L23.3537 13.2139L23.2518 13.051L23.0684 12.7864C23.0684 12.7864 22.7832 12.3996 22.5184 12.257C22.2739 12.1145 22.0905 12.0331 22.0905 12.0331C22.0905 12.0331 21.9683 11.972 21.9071 11.9313C21.8053 11.8499 21.7645 11.7888 21.683 11.687C21.5812 11.5649 21.5404 11.4834 21.4182 11.3613C21.1941 11.1373 20.5014 11.0152 20.7662 10.8523C20.9088 10.7709 21.0922 10.8116 21.1737 10.832C21.2552 10.8523 21.4386 10.9337 21.6219 10.9948C21.7442 11.0355 21.8256 11.0355 21.9479 11.0763C22.0701 11.117 22.2127 11.1373 22.2739 11.1781C22.335 11.2188 22.3961 11.3002 22.4369 11.3206C22.4572 11.3409 22.6202 11.6056 22.9054 11.7481C23.1907 11.8906 23.3333 11.9924 23.6185 12.0127C23.8426 12.0331 24.2094 11.9517 24.2094 11.9517C24.2094 11.9517 24.3112 11.911 24.2297 11.8092C24.1279 11.7074 24.1279 11.687 24.0464 11.6667C23.7204 11.5445 23.4555 11.5852 23.2111 11.3409C23.1092 11.2391 23.0684 11.2188 22.9869 11.0559C22.9054 10.893 22.9462 10.8523 22.8851 10.7505C22.8443 10.6487 22.7425 10.5062 22.7425 10.5062C22.7425 10.5062 22.4369 10.1398 22.1109 9.95655C21.7645 9.77332 21.52 9.5901 21.4793 9.54938C21.4182 9.50866 21.2959 9.3458 21.2959 9.3458L21.1941 9.18293L21.1329 9.06078C21.0922 8.83684 21.4997 9.12185 21.7238 9.20329C22.0905 9.32544 22.2739 9.4883 22.6406 9.61046C22.8443 9.67153 22.9666 9.67153 23.1703 9.75296C23.5167 9.89547 23.6185 10.2416 23.9852 10.2823C24.189 10.3026 24.5965 10.3841 24.515 10.2008C24.4335 9.99726 24.026 9.99726 23.8223 9.75296C23.7204 9.65117 23.7204 9.54938 23.6185 9.44759C23.4555 9.244 23.0684 9.06078 23.0684 9.06078C23.0684 9.06078 22.9462 8.95899 22.8036 8.67397C22.6813 8.38895 22.3757 8.18537 21.8256 7.92071C21.4589 7.73748 20.7255 7.69677 21.0107 7.51354C21.1737 7.39139 21.3163 7.41175 21.5404 7.47283C21.7645 7.55426 21.846 7.65605 22.0294 7.73748C22.2127 7.81892 22.2942 7.83928 22.335 7.85963C22.3757 7.87999 22.5184 7.94107 22.5795 7.94107C22.6202 7.96143 22.9258 8.00214 23.0073 8.0225L23.4148 8.12429L23.7408 8.24644C23.7408 8.24644 23.9038 8.30752 24.0056 8.30752C24.1075 8.30752 24.2705 8.2668 24.2705 8.2668L24.3927 8.18537L24.4131 8.14465C24.4131 8.14465 24.4742 8.04286 24.3112 8.0225C24.1686 8.00214 24.0871 8.00214 24.0667 8.00214L23.9241 7.96143L23.863 7.94107C23.863 7.94107 23.5778 7.71713 23.3333 7.61533C23.0684 7.51354 23.0277 7.49318 23.0277 7.49318L22.9258 7.47283L22.8036 7.45247C22.8036 7.45247 22.7017 7.45247 22.5387 7.30996C22.3757 7.16745 22.3146 7.08602 22.172 6.94351L21.9886 6.76028C21.9886 6.76028 21.8256 6.63813 21.8256 6.53634C21.846 6.37347 22.1924 6.71957 22.1924 6.71957L22.4369 6.88243C22.4369 6.88243 22.6406 7.02494 23.0073 7.0453C23.374 7.06566 23.8223 6.94351 23.8223 6.94351C23.8223 6.94351 23.8834 6.90279 24.0871 6.96387C24.2909 7.02494 24.4538 7.14709 24.4538 7.14709L24.6168 7.2896L24.8613 7.55426L24.9021 7.5339C24.9224 7.51354 25.0243 7.41175 24.8409 7.18781C24.6576 6.96387 24.352 6.76028 24.352 6.76028C24.352 6.76028 23.9445 6.51598 23.537 6.43455C23.1296 6.35311 22.9462 6.35311 22.9462 6.35311C22.9462 6.35311 22.6406 6.35311 22.4572 6.14953C22.2739 5.94595 22.1516 5.74236 22.1516 5.74236L22.0905 5.45735C22.0905 5.45735 21.9886 5.3352 21.7849 5.25376C21.6015 5.17233 21.3978 5.05018 21.3978 5.05018C21.3978 5.05018 21.0922 4.94839 21.0718 4.80588C21.0107 4.54122 21.5812 4.80588 21.8868 4.86695C22.172 4.92803 22.2942 5.02982 22.5795 5.09089C22.824 5.15197 22.9666 5.17233 23.2314 5.15197C23.374 5.15197 23.4555 5.13161 23.5982 5.11125C23.7408 5.11125 23.8426 5.09089 23.9852 5.11125C24.189 5.15197 24.2705 5.25376 24.4742 5.3352C24.5965 5.39627 24.6576 5.45735 24.8002 5.4777C24.9224 5.49806 25.1669 5.5795 25.1262 5.45735L25.065 5.37591C24.9632 5.2334 24.8409 5.2334 24.7187 5.13161C24.4538 4.92803 24.3316 4.76516 24.026 4.62265C23.8223 4.52086 23.7 4.48014 23.4759 4.43943C23.3129 4.41907 23.1907 4.45979 23.0277 4.41907C22.8443 4.35799 22.7832 4.27656 22.5998 4.17477C22.3146 4.0119 22.1516 3.86939 21.846 3.74724C21.6423 3.66581 21.2959 3.58437 21.2959 3.58437L21.1533 3.56402L21.0922 3.54366C20.807 3.44187 21.6015 3.21792 21.9683 3.11613C22.1516 3.07542 22.2331 3.0347 22.4165 3.05506C22.5795 3.07542 22.7628 3.29936 22.9462 3.19757C23.2111 3.05506 22.6406 2.66825 22.4572 2.60717C22.2127 2.50538 21.7849 2.58681 21.7849 2.58681L20.8477 2.56646L20.5829 2.52574C20.5829 2.52574 20.4199 2.52574 20.2976 2.38323C20.1754 2.24072 19.7068 1.67069 19.1771 1.58925C18.627 1.50782 18.464 1.58925 18.4233 1.54854C17.9547 0.815635 17.4657 0.652768 17.099 0.306676C16.9971 0.204884 16.8341 -0.0190581 16.7934 0.00130023C16.7526 0.0216586 16.6915 0.327034 16.5896 0.591693C16.4674 0.897069 16.5489 1.03958 16.61 1.16173C16.6915 1.28388 16.7934 1.36531 16.5896 1.48746C16.3859 1.60961 16.121 1.5689 16.121 1.5689C16.121 1.5689 15.8969 1.52818 15.7136 1.42639C15.5302 1.34495 15.1431 1.18209 15.1431 1.18209C15.1431 1.18209 14.7764 1.08029 14.5319 1.10065C14.2874 1.12101 14.2671 1.14137 14.0837 1.16173C13.9818 1.16173 13.9411 1.16173 13.8392 1.18209C13.7577 1.20244 13.6558 1.14137 13.6558 1.24316C13.6558 1.34495 13.8596 1.34495 14.0022 1.40603C14.1448 1.4671 14.4708 1.4671 14.4097 1.54854C14.3282 1.62997 14.0226 1.65033 14.0022 1.62997C13.9818 1.62997 13.7781 1.58925 13.6151 1.58925C13.3502 1.60961 13.3299 1.60961 12.9428 1.79284C12.8817 1.8132 12.902 1.9557 13.0243 1.91499C13.1669 1.87427 13.3706 1.83355 13.5947 1.83355C13.8392 1.83355 13.9818 1.91499 14.2263 1.97606C14.43 2.03714 14.4504 2.07785 14.756 2.11857C14.8171 2.11857 14.9394 2.07785 14.9394 2.15929C14.9394 2.20001 14.8579 2.26108 14.8579 2.26108C14.8579 2.26108 14.6745 2.3018 14.6949 2.36287C14.7356 2.44431 14.8986 2.36287 14.9801 2.36287C15.0616 2.36287 15.1839 2.38323 15.1635 2.46466L15.1227 2.52574C14.8986 2.58681 14.7764 2.62753 14.5727 2.70896C14.0633 2.91255 13.8596 3.15685 13.3706 3.40115C12.902 3.62509 12.1482 3.91011 12.1482 3.91011C12.1482 3.91011 11.9241 4.03226 11.5981 4.11369C11.2721 4.19513 11.2518 4.17477 11.0277 4.21548C10.8035 4.23584 10.7017 4.27656 10.5183 4.37835C10.3961 4.43943 10.335 4.5005 10.2331 4.60229L9.94786 5.02982L9.78487 5.27412C9.74412 5.35555 9.70337 5.39627 9.683 5.4777C9.64225 5.5795 9.62188 5.62021 9.60151 5.722C9.54039 5.96631 9.60151 6.10881 9.64225 6.35311C9.66263 6.41419 9.66263 6.45491 9.683 6.51598C9.70337 6.57706 9.78487 6.63813 9.78487 6.63813L9.86636 6.65849C9.86636 6.65849 10.1516 6.63813 10.335 6.59742C10.5183 6.5567 10.7832 6.49562 10.7832 6.49562L11.1295 6.39383L11.3536 6.3124C11.3536 6.3124 11.4962 6.3124 11.5166 6.39383C11.537 6.45491 11.4759 6.5567 11.4759 6.5567C11.4759 6.5567 11.3536 6.61777 11.2518 6.65849C11.1499 6.69921 10.9054 6.76028 10.885 6.78064L10.6202 6.86207L10.3961 6.88243C10.3961 6.88243 10.3553 6.90279 10.3146 6.96387C10.2738 7.02494 10.2738 7.02494 10.2738 7.06566C10.3146 7.10637 10.335 7.14709 10.3757 7.18781C10.4572 7.24888 10.4979 7.2896 10.5998 7.30996C10.7424 7.37103 10.8239 7.35067 10.9665 7.35067C11.1703 7.35067 11.2925 7.30996 11.4759 7.22852C11.6389 7.12673 11.7 7.12673 11.9241 7.0453C11.9852 7.02494 12.1075 7.00458 12.1482 7.00458C12.5353 6.96387 12.7594 7.02494 13.1465 7.08602C13.5336 7.14709 13.717 7.26924 14.1041 7.33032C14.5115 7.39139 14.756 7.51354 15.1839 7.41175C15.3876 7.37103 15.5098 7.26924 15.6117 7.47283C15.7136 7.65605 15.6932 7.75784 15.6932 7.75784C15.6932 7.75784 15.6932 7.87999 15.5506 8.2668C15.408 8.65361 14.9598 9.61046 14.9598 9.61046L14.6542 10.2212C14.6542 10.2212 14.4097 10.7098 13.8392 11.3409C13.2687 11.972 13.228 12.0127 13.228 12.0127C13.228 12.0127 12.9224 12.2367 12.6168 12.6235C12.3112 13.0103 12.3112 13.1528 12.026 13.4378C11.8426 13.6211 11.7407 13.7228 11.5166 13.8654C11.2925 14.0079 11.0277 13.9671 10.3146 14.4557C9.70337 14.8833 9.3774 15.2294 9.33665 15.209C9.2959 15.1887 9.09217 15.0258 9.01067 14.9851C8.94955 14.9444 7.76789 14.1504 7.76789 14.1504L7.27892 13.8246L7.05481 13.6821L7.01406 13.6007L6.89182 13.4378C6.89182 13.4378 6.70846 13.2139 6.48435 13.0307C6.26024 12.8271 6.01576 12.6642 5.64903 12.5828C5.30268 12.481 5.07857 12.4199 4.73222 12.5421C4.50811 12.6235 4.38587 12.7049 4.22288 12.8678C4.01915 13.0714 3.9784 13.2342 3.81541 13.4785C3.65242 13.7228 3.48944 13.9468 3.40794 14.0689C3.32645 14.1911 3.16346 14.5168 3.16346 14.5168C3.16346 14.5168 2.75599 15.1683 2.53188 15.5958C2.26702 16.0641 2.16515 16.3491 1.92067 16.797C1.53357 17.5095 0.983486 18.2424 0.840871 18.5681C0.698256 18.8939 0.677883 18.9346 0.677883 18.9346C0.677883 18.9346 0.637135 19.1178 0.616762 19.24C0.596388 19.3621 0.596388 19.5657 0.576015 19.6471C0.555641 19.7489 0.49452 19.8507 0.474147 19.8711C0.453773 19.8914 0.229664 20.3597 0.14817 20.6651C0.0666755 20.9704 -0.116687 21.9273 0.107423 22.0494C0.331532 22.1716 1.98179 21.459 2.2059 20.7668C2.34852 20.319 1.75768 20.095 1.92067 19.6879C1.98179 19.5453 2.02254 19.525 2.12441 19.3825C2.28739 19.1178 2.22627 18.5681 2.53188 18.0592C2.75599 17.6927 3.20421 17.2245 3.81541 16.5323C4.20251 16.1048 4.56923 15.4126 4.56923 15.4126C4.56923 15.4126 4.65073 15.1683 4.81372 15.209C4.99708 15.2497 5.16007 15.2294 5.16007 15.2294L5.24156 15.2904L5.40455 15.4533L5.64903 15.8198C5.64903 15.8198 6.05651 16.4102 6.19912 16.573C6.34174 16.7359 6.48435 16.858 6.68809 17.0209C6.9122 17.2245 6.99369 17.3263 7.27892 17.5502C7.68639 17.876 7.54378 17.9981 7.01406 17.7131C6.8307 17.6113 6.54547 17.5095 6.32136 17.4484C6.07688 17.3874 5.16007 17.1431 4.69148 17.082C4.24326 17.0209 4.16176 17.0413 4.16176 17.0413C4.16176 17.0413 3.93765 17.0209 3.6728 17.1838C3.40794 17.3466 3.26533 17.4688 3.26533 17.4688C3.26533 17.4688 2.95972 17.8149 2.93935 17.876C2.91898 17.937 2.77636 18.1813 2.77636 18.1813C2.77636 18.1813 2.69487 18.3035 2.67449 18.446C2.63375 18.5885 2.65412 18.731 2.65412 18.731L2.67449 19.0364L2.69487 19.3214C2.69487 19.3214 2.75599 20.0339 2.8986 20.7465C2.93935 20.9501 2.9801 21.2758 2.9801 21.2758L3.08196 22.0087C3.08196 22.0087 3.14308 22.7823 3.20421 23.047C3.26533 23.2913 3.30607 23.3116 3.34682 23.4745C3.42831 23.7799 3.2857 23.9224 3.42831 24.2888C3.57093 24.6553 3.69317 24.6146 3.83579 24.8385C3.93765 25.0014 3.9784 25.0421 4.0599 25.2457C4.14139 25.4493 4.40625 26.1211 4.71185 26.6097C5.03783 27.1187 5.46567 27.7498 5.7509 27.6887C6.03613 27.6276 6.23987 27.1797 6.23987 27.1797C6.23987 27.1797 6.56584 26.3043 6.36211 25.4493C6.15837 24.5739 5.22119 24.981 5.09895 24.3499C5.07857 24.2074 5.09895 23.9835 5.09895 23.9835C5.09895 23.9835 5.07857 23.7188 5.03783 23.6374C4.99708 23.5559 4.6711 22.9452 4.54886 22.4362C4.44699 22.0494 4.46737 20.8076 4.38587 20.4615C4.16176 19.5657 4.14139 19.6471 4.26363 19.4843C4.40625 19.3214 4.52849 19.3621 4.52849 19.3621L4.71185 19.3825L4.85446 19.4436C4.85446 19.4436 5.01745 19.5453 5.11932 19.6064C5.20082 19.6675 5.48605 19.8914 5.48605 19.8914L6.17875 20.3393C6.17875 20.3393 6.56584 20.5633 6.72883 20.6447C6.89182 20.7261 7.03444 20.8279 7.03444 20.8279L7.2178 20.9501L7.5234 21.174L7.58452 21.2351L7.62527 21.3165C7.62527 21.3165 7.76789 21.6423 8.37909 21.9883C8.86806 22.2734 9.2959 22.1919 9.47927 22.4159C9.52001 22.4566 9.86636 22.9248 10.0294 23.2099C10.2331 23.5356 10.4776 23.9224 10.5591 24.0445C10.6406 24.1667 11.1499 24.7978 11.1499 24.7978L11.8222 25.5307L12.6983 26.345L13.4929 27.0169L14.0022 27.424C14.0022 27.424 14.4504 27.8516 14.9598 28.1977C15.4487 28.5234 15.4691 28.5641 15.7951 28.788C16.0396 28.9509 16.3655 29.1749 16.6915 29.4192C17.0175 29.6838 17.3842 30.1724 17.2416 30.3353C17.1397 30.3964 16.9564 30.1317 16.61 29.8263C16.3248 29.582 16.1822 29.4599 15.8969 29.2563C15.5302 28.9713 15.3469 28.8288 14.9394 28.5845C14.7356 28.4623 14.3689 28.2384 14.3485 28.2791C14.2059 28.7066 14.2263 29.1138 14.2467 29.6431C14.2671 30.0096 14.3282 30.376 14.4504 30.8442C14.5523 31.2921 14.6542 31.5364 14.8171 31.964C14.9801 32.3915 15.2857 33.0633 15.2857 33.0633L15.7543 33.9998L16.1822 34.7123L16.4063 35.0788L16.4878 35.2009C16.4878 35.2009 16.5896 35.4452 16.4878 35.6081C16.3859 35.771 16.2637 36.1171 16.0803 36.1374C15.8969 36.1781 15.4691 36.1985 15.4691 36.1985L13.0446 36.1578L11.7815 36.056C11.7815 36.056 11.6389 35.9746 10.9054 35.9746C10.4776 35.9746 10.1312 36.1578 9.88674 36.1781C9.683 36.1985 8.6847 36.1171 8.01237 36.3817C7.38079 36.6464 7.09556 36.7075 6.87145 37.1146C6.70846 37.42 7.66602 37.9086 8.46059 38.0918C9.74412 38.3768 9.3774 37.8272 9.86636 37.4811C9.92748 37.4404 9.94786 37.3996 10.009 37.3793C10.335 37.2775 10.5183 37.5422 10.8443 37.5422C11.211 37.5422 11.4148 37.42 11.7815 37.3589C13.6355 37.1146 16.5285 37.99 16.5285 37.99C16.5285 37.99 17.2416 38.214 17.5676 38.1529C17.9547 38.0715 17.8732 37.929 17.9954 37.705C18.0973 37.5218 18.0565 37.4811 18.0769 37.2775C18.0769 37.1553 18.0565 37.0943 18.0362 36.9721C17.9547 36.626 17.7306 36.1374 17.7306 36.1374C17.7306 36.1374 17.5676 35.771 17.5065 35.5877C17.425 35.3231 17.3435 35.1602 17.3027 34.8752C17.1805 34.1219 17.2008 34.183 17.2008 33.7555C17.2008 32.9819 17.2823 32.5543 17.4861 31.8011C17.7917 30.7017 18.3621 30.2335 18.79 29.1749C18.9122 28.8898 18.9122 28.4827 19.0548 28.442C19.2178 28.4216 19.1975 28.9509 19.116 29.2563C18.8511 30.3149 18.1992 30.7628 17.8936 31.8418C17.6694 32.6765 17.5472 33.1651 17.6083 34.0202C17.6287 34.4884 17.8121 35.2213 17.8121 35.2213C17.8121 35.2213 18.0565 36.0356 18.1788 36.341C18.301 36.6464 18.5455 37.1553 18.5455 37.1553L19.0956 38.1325L19.3808 38.6008C19.3808 38.6008 19.5846 38.784 19.4827 39.0894C19.3808 39.3948 19.1771 39.578 18.9326 39.8426C18.2399 40.657 16.6304 41.8581 16.2229 42.1431C15.6525 42.5707 15.6728 42.6928 15.6321 42.815C15.408 43.4664 14.756 43.4868 14.0429 44.2604C13.88 44.4233 13.4521 44.8712 13.5336 45.258C13.5744 45.4005 15.3265 45.7059 16.3452 45.2783C17.1397 44.9322 16.447 44.5454 16.6711 44.1586C16.8341 43.8736 17.2416 43.8736 17.425 43.6293C17.7306 43.2221 17.5268 43.2425 17.7917 42.9168C18.6677 41.8581 19.2382 41.2474 20.807 40.2905C20.9496 40.2091 21.2144 40.0869 21.2144 40.0869C21.2144 40.0869 21.4386 39.9852 21.52 39.863C21.6219 39.7001 21.6015 39.5576 21.6015 39.3744C21.6015 39.2523 21.5812 39.1912 21.5812 39.069C21.5812 38.9265 21.6015 38.8451 21.5608 38.7026C21.52 38.4786 21.3774 38.2954 21.2959 38.1733C21.2144 38.0715 21.0718 37.8882 20.9903 37.5014C20.8885 37.1146 20.8885 36.7889 21.0515 36.3614C21.2144 35.9338 21.5812 35.5877 21.5812 35.5877L22.498 34.977C22.498 34.977 23.2925 34.407 23.537 34.183C23.8019 33.9591 24.3112 33.4908 24.6779 32.9615C25.1058 32.3711 25.3299 32.0047 25.5133 31.2921C25.5744 31.0275 25.6355 30.6203 25.6355 30.6203C25.6355 30.6203 25.6355 30.3353 25.7985 30.3149C25.9615 30.2946 26.0022 30.3556 26.0022 30.3556C26.0022 30.3556 26.1448 30.4371 26.1856 30.8442C26.206 31.2514 26.0837 31.7197 26.0837 31.7197C26.0837 31.7197 25.9615 32.1879 25.9207 32.4729C25.9004 32.6561 25.9004 32.7579 25.9004 32.9615C25.9004 33.3076 26.043 33.5926 26.043 33.5926C26.043 33.5926 26.1245 33.6537 26.1245 33.5112C26.1245 33.3483 26.1652 33.104 26.2263 32.8597C26.2875 32.6561 26.3282 32.6969 26.4504 32.3508C26.6134 31.9029 26.4708 31.9436 26.5523 31.6789C26.5931 31.5568 26.6949 31.4346 26.8172 31.4346C26.9394 31.4346 26.9598 31.5975 26.9598 31.5975C26.9598 31.5975 27.082 32.1268 26.9802 32.6154C26.8783 33.104 26.5116 33.7759 26.5116 33.7759L26.2263 34.2645C26.2263 34.2645 26.0226 34.6105 25.9411 34.8345C25.8596 35.0788 25.8392 35.1806 25.88 35.4045C25.9411 35.6488 26.1245 35.9746 26.2263 35.9135C26.3078 35.8524 26.1041 35.6488 26.3486 35.1602C26.5931 34.6716 26.919 34.3662 26.919 34.3662C26.919 34.3662 27.3673 33.8369 27.571 33.4298C27.7544 33.0633 27.9377 32.4729 27.9377 32.4729C27.9377 32.4729 28.0803 31.9436 28.0396 31.4957C28.0192 31.0682 27.9377 30.8442 27.9377 30.8442L27.7544 30.5185L27.6525 30.2742L27.6932 30.1317C27.734 30.1113 27.8766 30.2131 27.9988 30.376C28.1211 30.5389 28.2433 30.7425 28.3044 31.0275C28.3656 31.2311 28.3859 31.4143 28.3859 31.5975C28.3859 31.7604 28.3248 32.4322 28.5693 32.8597C28.6712 33.0633 28.9157 33.5316 28.936 33.328C28.9768 32.8597 28.773 32.6358 28.7934 32.2083C28.8138 31.7197 28.936 31.8418 28.9768 31.5975C29.0175 31.3328 29.0786 31.2718 29.0379 30.9257C28.9971 30.5999 28.8545 30.1724 28.8545 30.1724L28.7119 29.8467L28.6508 29.7245C28.6508 29.7245 28.6915 29.6635 28.7527 29.6635L29.2416 29.5006C29.2416 29.5006 29.8732 29.2156 30.1177 29.012C30.3825 28.8288 30.6882 28.503 30.6882 28.503C30.6882 28.503 31.0956 27.9941 31.2994 27.6276C31.7883 26.7115 31.7883 25.5511 31.7679 25.0217C31.7476 24.5128 31.605 23.841 31.605 23.841C31.605 23.841 31.442 23.0266 31.4827 22.4973C31.5235 21.968 31.5642 21.7237 31.5642 21.7237C31.5642 21.7237 31.5438 21.1944 31.9921 20.6243C32.4403 20.0543 32.644 19.6879 32.7255 19.2603C32.807 18.8939 32.6848 18.3035 32.5218 18.5274ZM19.0345 14.8629C18.9733 14.8629 18.8919 14.7815 18.8919 14.7815C18.8919 14.7815 18.8715 14.7611 18.9326 14.7204C18.9937 14.6797 19.0752 14.7 19.0752 14.7L19.1363 14.7204L19.2382 14.8629C19.2178 14.924 19.0956 14.8833 19.0345 14.8629ZM19.279 14.1911C19.2178 14.1707 19.116 14.1097 19.116 14.1097C19.116 14.1097 19.0956 14.0689 19.1567 14.0282C19.2178 13.9875 19.3197 14.0079 19.3197 14.0079L19.3808 14.0486C19.4012 14.0689 19.5031 14.1707 19.5031 14.2114C19.5031 14.2725 19.3604 14.2114 19.279 14.1911ZM19.5031 13.4989C19.4216 13.4785 19.2993 13.3971 19.2993 13.3971C19.2993 13.3971 19.279 13.3564 19.3604 13.3157C19.4419 13.275 19.5642 13.2953 19.5642 13.2953L19.6457 13.336C19.6864 13.3768 19.7883 13.4785 19.7883 13.5396C19.7679 13.6007 19.5846 13.5193 19.5031 13.4989ZM19.6864 12.8678C19.6049 12.8474 19.4827 12.766 19.4827 12.766C19.4827 12.766 19.4623 12.7253 19.5438 12.6846C19.6253 12.6439 19.7475 12.6642 19.7475 12.6642L19.829 12.7049C19.8698 12.7456 19.9717 12.8474 19.9717 12.9085C19.9513 12.9492 19.7679 12.8678 19.6864 12.8678ZM19.8698 12.1145C19.7679 12.0942 19.6457 11.9924 19.6457 11.9924C19.6457 11.9924 19.6253 11.9517 19.7068 11.8906C19.7883 11.8295 19.9309 11.8702 19.9309 11.8702L20.0124 11.911C20.0531 11.9517 20.1754 12.0738 20.1754 12.1349C20.1754 12.2163 19.9513 12.1145 19.8698 12.1145ZM19.992 11.3002C19.8698 11.2798 19.7068 11.1577 19.7068 11.1577C19.7068 11.1577 19.6661 11.0966 19.7883 11.0355C19.8902 10.9745 20.0531 10.9948 20.0531 10.9948L20.155 11.0559C20.1958 11.0966 20.3384 11.2595 20.3588 11.3409C20.3588 11.4224 20.1143 11.3206 19.992 11.3002ZM20.0735 10.4859C19.9309 10.4655 19.7272 10.3026 19.7272 10.3026C19.7272 10.3026 19.6864 10.2416 19.8087 10.1601C19.9309 10.0787 20.1346 10.1194 20.1346 10.1194C20.1346 10.1194 20.1958 10.1398 20.2569 10.1805C20.318 10.2416 20.481 10.4248 20.5014 10.5266C20.5217 10.6284 20.2161 10.5062 20.0735 10.4859ZM20.1958 9.54938C20.0328 9.52902 19.8087 9.3458 19.8087 9.3458C19.8087 9.3458 19.7679 9.26436 19.9105 9.18293C20.0531 9.08114 20.2773 9.14221 20.2773 9.14221C20.2773 9.14221 20.3588 9.16257 20.4199 9.22365C20.481 9.28472 20.6847 9.50866 20.7051 9.61046C20.7051 9.73261 20.3588 9.56974 20.1958 9.54938ZM20.1143 5.76272C19.992 5.74236 19.829 5.62021 19.829 5.62021C19.829 5.62021 19.7883 5.5795 19.9105 5.51842C20.0328 5.45735 20.1958 5.49806 20.1958 5.49806C20.1958 5.49806 20.2569 5.51842 20.2976 5.55914C20.3384 5.59985 20.5014 5.74236 20.5014 5.8238C20.5014 5.88487 20.2365 5.78308 20.1143 5.76272ZM20.5625 6.67885C20.5829 6.76028 20.2976 6.65849 20.155 6.63813C20.0328 6.61777 19.8494 6.47526 19.8494 6.47526C19.8494 6.47526 19.8087 6.41419 19.9309 6.35311C20.0531 6.27168 20.2161 6.3124 20.2161 6.3124C20.2161 6.3124 20.2773 6.33276 20.3384 6.37347C20.3995 6.43455 20.5421 6.59741 20.5625 6.67885ZM19.9717 8.18537C20.0939 8.10394 20.2976 8.14465 20.2976 8.14465C20.2976 8.14465 20.3588 8.16501 20.4199 8.20573C20.481 8.2668 20.644 8.45003 20.6644 8.55182C20.6847 8.65361 20.3791 8.53146 20.2365 8.49074C20.0939 8.47039 19.8902 8.30752 19.8902 8.30752C19.8902 8.30752 19.8494 8.2668 19.9717 8.18537ZM20.2365 7.49318C20.0939 7.47283 19.8902 7.30996 19.8902 7.30996C19.8902 7.30996 19.8494 7.24888 19.9717 7.16745C20.0939 7.08602 20.2976 7.12673 20.2976 7.12673C20.2976 7.12673 20.3588 7.14709 20.4199 7.18781C20.481 7.24888 20.644 7.43211 20.6644 7.5339C20.6847 7.65605 20.3791 7.5339 20.2365 7.49318ZM20.5014 4.43943C20.6644 4.48014 20.7051 4.58194 20.6236 4.58194C20.5421 4.60229 20.5014 4.60229 20.4402 4.60229C20.2569 4.60229 20.2773 4.52086 20.0328 4.64301C19.7883 4.76516 19.9717 4.70409 19.6253 4.82624C19.2993 4.94839 19.3808 4.62265 19.3808 4.62265C19.3808 4.62265 19.4012 4.56158 19.4419 4.39871C19.4827 4.23584 19.6864 4.39871 19.829 4.39871C20.0939 4.39871 20.318 4.39871 20.5014 4.43943ZM19.5846 3.17721L19.6864 3.23828C19.7272 3.279 19.8698 3.44187 19.8902 3.5233C19.9105 3.60473 19.6457 3.50294 19.5438 3.48258C19.4216 3.46222 19.2586 3.34007 19.2586 3.34007C19.2586 3.34007 19.2178 3.279 19.3401 3.21792C19.4419 3.13649 19.5846 3.17721 19.5846 3.17721ZM18.8511 2.20001C18.953 2.13893 19.116 2.15929 19.116 2.15929L19.2178 2.22036C19.2586 2.26108 19.4012 2.42395 19.4216 2.50538C19.4419 2.58681 19.1771 2.48502 19.0752 2.46466C18.953 2.44431 18.79 2.32216 18.79 2.32216C18.79 2.32216 18.7492 2.26108 18.8511 2.20001ZM18.6474 15.3922C18.7085 15.3515 18.79 15.3719 18.79 15.3719L18.8511 15.3922L18.953 15.5347C18.953 15.5755 18.8307 15.5144 18.7696 15.5144C18.7085 15.5144 18.627 15.433 18.627 15.433C18.627 15.433 18.5863 15.4126 18.6474 15.3922ZM10.4776 5.70165C10.4164 5.74236 10.3757 5.76272 10.2942 5.8238C10.1923 5.90523 10.0905 6.10881 10.0294 6.04774C9.94786 5.98666 9.9886 5.76272 9.9886 5.76272C9.9886 5.76272 10.0497 5.59985 10.1312 5.43699C10.2331 5.27412 10.3553 5.27412 10.3553 5.27412C10.4776 5.27412 10.7017 5.35555 10.7017 5.53878C10.7221 5.722 10.5794 5.64057 10.4776 5.70165ZM12.1482 6.33276C12.1482 6.33276 12.0667 6.35311 12.0463 6.21061C12.026 6.0681 12.1482 6.04774 12.1482 6.04774C12.1482 6.04774 12.3927 5.92559 12.3927 6.08846C12.4131 6.23096 12.1482 6.33276 12.1482 6.33276ZM14.3282 3.56402C14.3282 3.56402 14.0633 3.99154 13.6966 4.15441C13.3299 4.31728 13.0854 4.39871 12.3927 4.45979C12.2908 4.45979 12.3316 4.39871 12.3316 4.39871C12.3316 4.39871 13.1261 4.17477 13.5744 3.93047C13.8188 3.78796 14.1041 3.60473 14.1856 3.5233C14.4708 3.279 14.3282 3.56402 14.3282 3.56402ZM0.637135 21.1944C0.637135 21.2962 0.514894 21.4794 0.474147 21.4794C0.4334 21.4794 0.351905 21.2962 0.372279 21.1944C0.392653 21.0926 0.413026 20.8076 0.576015 20.8483C0.698256 20.8686 0.637135 21.0926 0.637135 21.1944ZM1.16685 18.8939C1.16685 18.8939 0.983486 19.2807 0.922365 19.1178C0.861245 18.9753 0.983486 18.7107 0.983486 18.7107C1.14647 18.5681 1.2076 18.3646 1.28909 18.446C1.35021 18.5274 1.16685 18.8939 1.16685 18.8939ZM3.69317 14.924C3.50981 15.1276 2.93935 16.2066 2.81711 16.0233C2.69487 15.8808 3.36719 14.8629 3.50981 14.6593C3.65242 14.4354 3.77467 14.4761 3.77467 14.4761L3.81541 14.5168C3.79504 14.5168 3.87653 14.7204 3.69317 14.924ZM5.22119 13.3157C5.22119 13.3157 4.81372 13.3971 4.87484 13.2546C4.95633 13.1121 5.24156 13.051 5.24156 13.051C5.46567 13.0917 5.50642 13.1121 5.48605 13.2139C5.50642 13.3157 5.22119 13.3157 5.22119 13.3157ZM6.87145 16.1659C6.68809 16.3491 6.62697 16.1048 6.36211 15.7994C6.09725 15.5144 6.15837 15.2701 6.15837 15.2701H6.19912L6.23987 15.2904L6.34174 15.3312L6.40286 15.3922L6.60659 15.5958C6.68809 15.718 6.9122 16.1251 6.87145 16.1659ZM3.71354 22.253C3.65242 22.253 3.5913 22.1309 3.5913 22.1309C3.5913 22.1309 3.42831 21.8866 3.36719 21.7033C3.30607 21.5405 3.2857 21.2758 3.2857 21.2758C3.2857 21.2758 3.24495 20.9297 3.24495 20.8076C3.26533 20.6447 3.26533 20.5022 3.2857 20.4208C3.30607 20.3393 3.38757 20.3597 3.38757 20.3597C3.50981 20.3597 3.50981 20.4615 3.50981 20.4615V20.5225C3.50981 20.5225 3.50981 20.889 3.53018 21.174C3.53018 21.2554 3.75429 22.1716 3.75429 22.1716C3.75429 22.1716 3.79504 22.253 3.71354 22.253ZM3.6728 17.9777C3.53018 18.2017 3.42831 18.2017 3.42831 18.2017C3.42831 18.1813 3.38757 18.0999 3.50981 17.8556C3.63205 17.6113 3.75429 17.6317 3.75429 17.6317L3.79504 17.6724C3.79504 17.6724 3.81541 17.7538 3.6728 17.9777ZM5.11932 26.5079C5.16007 26.4265 5.42492 26.6301 5.42492 26.6301C5.52679 26.6504 5.62866 26.8336 5.62866 26.8336C5.62866 26.8336 5.66941 26.9762 5.54717 27.0169C5.42492 27.0779 5.34343 26.9558 5.34343 26.9558C5.34343 26.9558 5.07857 26.5893 5.11932 26.5079ZM7.03444 20.2782C6.74921 20.2172 6.138 19.7489 5.89352 19.6268C5.64903 19.5046 5.24156 19.4639 5.42492 19.301C5.4453 19.2807 5.46567 19.24 5.50642 19.24C5.54717 19.24 5.73053 19.301 5.73053 19.301L6.17875 19.4843C6.19912 19.4843 6.42323 19.5861 6.60659 19.6879C6.76958 19.7896 7.05481 19.9729 7.05481 19.9729L7.17705 20.0747C7.17705 20.1154 7.31967 20.3393 7.03444 20.2782ZM9.52001 16.2269C9.52001 16.2269 9.17366 16.6952 8.96993 16.9802C8.70507 17.367 8.37909 17.9574 8.31797 17.8963C8.25685 17.8352 8.6032 17.1838 8.78656 16.8377C8.9903 16.4102 9.2959 16.1862 9.41814 16.1455C9.683 16.0233 9.52001 16.2269 9.52001 16.2269ZM8.41984 36.6057C8.41984 36.6057 8.41984 36.6871 8.27722 36.7889C8.13461 36.8907 8.07349 36.8296 8.05312 36.8296C8.03274 36.8296 7.89013 36.7482 7.89013 36.6667C7.9105 36.5853 8.13461 36.5242 8.13461 36.5242C8.52171 36.5039 8.41984 36.6057 8.41984 36.6057ZM11.5777 36.4835C11.4351 36.4632 11.4148 36.4224 11.4351 36.4021C11.4351 36.3817 11.4759 36.341 11.6389 36.341C11.8019 36.341 11.8019 36.4224 11.8019 36.4224C11.8019 36.4835 11.7407 36.5039 11.5777 36.4835ZM15.2042 36.6871C14.8986 36.7685 14.7764 36.7278 14.5115 36.7482C14.2874 36.7685 14.1856 36.7889 13.9615 36.7889C13.5744 36.7889 13.5336 36.8093 12.9835 36.6464C12.8817 36.6057 12.7594 36.4835 12.8002 36.4428C12.8409 36.3817 12.9224 36.4021 12.9224 36.4021C12.9224 36.4021 13.6151 36.5242 14.0633 36.5446C14.3893 36.565 14.5523 36.5853 14.8783 36.565C15.0616 36.565 14.9598 36.5446 15.245 36.5446C15.3469 36.5242 15.2857 36.6667 15.2042 36.6871ZM17.1397 36.1171C17.1194 36.1374 16.9971 36.1781 16.8952 36.1985C16.773 36.2189 16.8341 36.1171 16.8341 36.1171C16.8341 36.1171 16.9156 35.9949 17.0175 35.9338C17.1397 35.8728 17.2008 35.9338 17.2008 35.9338C17.2416 36.0153 17.1601 36.0967 17.1397 36.1171ZM18.6474 32.2083C18.5048 32.5136 18.464 32.6154 18.4436 32.9004C18.4029 33.2058 18.5863 34.0609 18.301 33.7351C18.1992 33.5926 18.0973 32.9208 18.1788 32.5951C18.3214 31.8622 18.9122 31.6586 18.6474 32.2083ZM14.5319 44.6472C14.4097 44.7287 14.6542 44.973 14.2671 44.9526C14.0429 44.9322 14.1652 44.7287 14.1856 44.7083L14.3282 44.5047C14.43 44.3622 14.4912 44.3419 14.593 44.2808C14.6949 44.2197 14.7764 44.3826 14.7764 44.3826C14.7764 44.3826 14.8171 44.4436 14.8171 44.5251C14.8171 44.5862 14.6338 44.5658 14.5319 44.6472ZM16.6711 42.591L16.4878 42.7335C16.4674 42.7335 16.3452 42.8353 16.3044 42.7743C16.2637 42.7132 16.3248 42.6317 16.3248 42.6114C16.3248 42.591 16.447 42.4485 16.5489 42.4078C16.6508 42.3467 16.7119 42.4078 16.7119 42.4078C16.773 42.5503 16.6711 42.591 16.6711 42.591ZM17.6287 6.92315C17.6287 6.92315 17.5472 7.18781 17.3842 7.24888C17.1805 7.30996 16.4063 7.33032 16.3859 7.26924C16.3655 7.20817 17.2823 7.12673 17.6287 6.78064C17.7102 6.69921 17.6287 6.92315 17.6287 6.92315ZM17.3435 6.25132C17.4046 6.14953 17.3638 6.41419 17.3638 6.41419C17.3638 6.41419 17.3027 6.67885 17.1601 6.76028C16.9767 6.86207 16.5285 6.98422 16.4878 6.92315C16.4878 6.88243 17.0786 6.69921 17.3435 6.25132ZM16.0803 3.19757C16.0803 3.19757 16.1618 3.19757 16.284 3.25864C16.4063 3.34007 16.4878 3.58437 16.4878 3.58437C16.4878 3.58437 16.5081 3.62509 16.4063 3.62509C16.3452 3.62509 16.3452 3.5233 16.284 3.48258C16.2025 3.42151 16.1414 3.40115 16.0396 3.36043C15.9377 3.31972 15.7951 3.38079 15.7747 3.279C15.7747 3.15685 16.0803 3.19757 16.0803 3.19757ZM15.1431 3.86939C15.1431 3.86939 15.1839 3.74724 15.3672 3.64545C15.5302 3.54366 15.7543 3.54366 15.7543 3.54366C15.7543 3.54366 15.8766 3.54366 16.0192 3.64545C16.1618 3.74724 16.284 4.09333 16.284 4.09333C16.284 4.09333 16.3248 4.31728 16.2229 4.39871C16.121 4.48014 15.9581 4.33763 15.8766 4.21548C15.7747 4.09333 15.7136 4.05262 15.571 4.0119C15.408 3.95083 15.1635 4.13405 15.1227 4.0119C15.1227 3.97118 15.1431 3.86939 15.1431 3.86939ZM15.082 6.67885C14.9598 6.69921 15.0413 6.57706 15.0413 6.57706C15.0413 6.57706 15.3876 6.43455 15.6117 6.3124C15.9784 6.12917 16.6711 5.39627 16.4878 5.74236C16.4063 5.90523 16.1618 6.10881 16.1618 6.10881C16.1618 6.10881 15.8766 6.51598 15.8154 6.57706C15.5506 6.78064 15.2246 6.65849 15.082 6.67885ZM12.2093 14.5779L12.2297 14.5372C12.2297 14.5372 12.8409 14.13 13.7985 14.2522C14.3689 14.3336 14.919 14.8426 14.8375 14.9036C14.756 14.9647 14.6338 14.9036 14.593 14.9036L14.3893 14.8018L14.0837 14.7204C14.0837 14.7204 13.5336 14.5983 13.1261 14.6186C12.7187 14.639 12.3519 14.7815 12.3519 14.7815C12.3519 14.7815 12.1889 14.8629 12.1482 14.7611C12.1278 14.639 12.2093 14.5779 12.2093 14.5779ZM13.717 26.0397C12.3112 24.9607 10.5998 22.762 10.8035 22.5584C10.9869 22.3955 11.6796 23.4134 12.7187 24.5331C13.8188 25.7139 15.1024 26.8336 15.1431 26.9762C15.2246 27.2205 14.2467 26.4468 13.717 26.0397ZM16.9156 10.832C16.3248 11.8499 15.5098 12.6235 15.5098 12.6235C15.2246 12.8271 15.408 12.4606 15.408 12.4606C15.408 12.4606 16.2025 11.3613 16.5693 10.5877C16.8341 10.038 16.9971 9.30508 17.1194 9.16257C17.4046 8.81648 17.262 10.2212 16.9156 10.832ZM18.5455 21.9883C17.9343 21.2554 17.4861 20.4615 17.3435 19.4639C17.3027 19.24 17.3027 18.9142 17.5065 18.955C17.6898 18.9753 17.6694 19.3214 17.6694 19.4028C17.7306 19.9932 17.975 20.5836 18.4233 21.2962C19.0548 22.2937 20.0735 23.0673 20.0328 23.1284C19.9309 23.2302 18.9122 22.4362 18.5455 21.9883ZM18.7289 41.0234C18.3825 41.3492 17.7917 41.7971 17.7917 41.7971H17.7102V41.6953L17.7306 41.6545L17.7713 41.5935L17.8121 41.5324L17.8528 41.4713L17.975 41.3288L18.2603 41.0642L18.5455 40.7995L18.9937 40.3516C18.9937 40.3516 19.1567 40.1684 19.2178 40.1277C19.279 40.087 19.3197 40.0462 19.3808 40.0055C19.4623 39.9648 19.5642 39.9037 19.6049 39.9444V40.0259C19.6253 40.087 19.0956 40.6773 18.7289 41.0234ZM19.992 25.9582C19.7272 26.1415 19.6253 26.1211 19.4623 26.3043C19.279 26.5283 19.2178 27.2815 19.0345 26.9762C18.8511 26.6708 18.9733 26.2433 19.279 25.9175C19.6457 25.49 20.4402 25.6325 19.992 25.9582ZM20.9496 39.354C21.0718 39.3133 21.1329 39.3337 21.1329 39.3337L21.1737 39.4151C21.1737 39.4355 21.0107 39.6594 20.9292 39.6594C20.8273 39.6391 20.8681 39.5169 20.8681 39.5169C20.8681 39.5169 20.8273 39.3948 20.9496 39.354ZM24.4335 31.0682C24.2501 30.946 24.5353 30.5796 24.5353 30.2742C24.5353 30.0299 24.4946 29.8467 24.4946 29.6431C24.4946 29.4395 24.6983 29.3784 24.6983 29.3784C24.7391 29.3784 24.8206 29.4192 24.9224 29.6227C25.0243 29.8263 24.7594 31.2718 24.4335 31.0682ZM30.6678 25.2457C30.627 26.1007 30.5863 26.7115 30.0769 27.363C29.4657 28.1569 28.4063 28.9713 28.6304 28.3198C28.773 27.933 29.7102 27.4444 30.0769 26.3654C30.2807 25.7139 30.3214 25.1032 30.3214 25.1032L30.2807 23.8613C30.2807 23.8613 30.2603 23.7595 30.2603 23.617C30.3214 23.4542 30.4029 23.5763 30.4029 23.5763L30.4437 23.6374C30.4437 23.6781 30.6882 24.6349 30.6678 25.2457Z" fill="white"/>
</g>
</svg>
