<svg preserveAspectRatio="none" overflow="visible" style="display: block;" width="39.5739" height="40.7045" viewBox="0 0 39.5739 40.7045" fill="none" xmlns="http://www.w3.org/2000/svg">
<g id="Logo.svg" opacity="0.5">
<path id="Vector" d="M34.9413 22.8906C34.8922 22.9186 34.59 23.0634 34.5061 23.0958C33.89 23.3706 33.337 23.3252 32.7206 22.9626C32.2777 22.7022 31.8667 22.1292 31.7058 21.928C31.5788 21.7693 31.4251 21.5614 31.2046 21.3642C30.7951 20.996 30.2413 20.7534 29.2827 20.7712C29.2056 20.7726 29.1295 20.755 29.0613 20.7189C28.0929 20.2067 26.4246 19.5823 24.83 19.6626C24.514 19.6839 24.4686 19.4541 24.3643 19.1969C24.0743 18.4219 23.863 18.063 23.6662 17.7822C23.4156 17.4247 23.3056 17.4219 23.0978 17.3636C22.8666 17.2986 22.6159 17.2741 22.4621 17.006C22.4433 16.9731 22.3678 16.8313 22.4534 16.7315C22.6651 16.4847 23.2522 16.1449 22.3702 15.6469C21.8324 15.3432 22.0719 15.148 22.1613 15.1019C22.2851 15.0381 22.4985 14.9877 22.7537 15.0385C23.0089 15.0894 23.3059 15.2415 23.5969 15.5824C23.8846 15.9194 24.8557 17.4918 25.4458 18.6856C25.4537 18.7017 25.4665 18.7877 25.5751 18.7982C25.7397 18.8142 26.0217 18.8146 26.0793 18.8196C26.1703 18.8273 26.1714 18.754 26.1625 18.7242C25.3259 15.9478 24.3636 12.4924 22.6935 10.0882C22.6595 10.0192 22.6886 9.94699 22.7939 9.9574C24.2885 10.1104 24.7221 12.2375 25.598 13.6348C26.7232 15.431 27.383 14.7271 27.4897 13.5155C27.5643 12.6686 27.3409 11.5907 26.7509 10.9864C26.6105 10.8156 26.3621 10.5993 26.2582 10.4714C26.2208 10.4254 26.2153 10.3481 26.3145 10.3234C26.3555 10.3132 26.414 10.309 26.4937 10.312C27.1844 10.3651 28.144 10.9241 28.5472 11.5466C29.3746 12.824 29.3129 13.5105 29.1995 13.9632C29.0055 14.7376 28.6437 15.1828 29.0923 16.4073C29.9803 18.831 29.7481 18.3254 29.2426 19.85C29.1993 19.9659 29.2704 20.0522 29.3704 20.043C30.5332 19.9363 30.8884 20.1996 31.1394 20.3342C31.1649 20.3478 31.1867 20.3687 31.2046 20.3647C31.2492 20.349 31.2651 20.2927 31.2728 20.2169C31.3682 19.5628 31.232 19.2865 31.0828 18.9011C30.9953 18.6748 30.8961 18.4196 30.8648 18.171C30.8141 17.8519 30.8718 17.6723 30.968 17.4336C31.1316 17.0266 31.2293 16.7112 31.0962 16.0988C30.8021 14.8062 29.7428 12.6779 29.0661 11.4521C29.0102 11.3463 28.5467 10.471 28.4739 10.3428C28.4243 10.2553 28.4453 10.1487 28.4823 10.0658C28.513 9.99703 28.564 9.85914 28.564 9.85914C28.7255 9.44723 28.8112 9.13268 28.8598 8.77318C29.0166 7.614 28.7127 6.7894 27.8743 6.09951C27.0962 5.45926 25.7103 5.17582 23.8648 5.2798L23.4742 5.30197C21.7361 5.40119 19.7662 5.51365 18.2838 5.39107C16.8487 5.27245 16.0106 5.04542 15.7213 4.69694C15.6275 4.58379 15.5911 4.45852 15.6072 4.30245C15.6394 3.99053 15.8282 3.68027 16.1253 3.45131C16.3823 3.2532 16.6862 3.14663 16.9013 3.18031C17.2874 3.19607 17.7109 3.41343 18.2012 3.66511C18.6404 3.89065 19.1383 4.14621 19.7173 4.31263C20.2068 4.45338 20.6914 4.51576 21.1567 4.49801C21.5959 4.48125 22.0261 4.38933 22.4353 4.22464C22.6083 4.15495 22.7326 4.07509 22.7866 4.02792C22.8146 4.00353 22.825 3.95491 22.7913 3.90946C22.7711 3.88213 22.7458 3.8823 22.656 3.88225C22.0398 3.88213 21.491 3.78507 21.1425 3.70339C20.7572 3.60605 20.724 3.51259 20.7277 3.47691C20.736 3.39434 20.9391 3.31581 21.1712 3.30541C22.3083 3.25431 23.1791 3.31586 23.7553 3.3564C23.9517 3.37028 24.1068 3.38123 24.2188 3.3835C24.3335 3.38583 24.4844 3.38146 24.4906 3.38074C24.5249 3.37742 24.5349 3.35552 24.5375 3.34628C24.544 3.32433 24.534 3.29828 24.5211 3.2881C24.1203 2.9571 22.8178 2.45753 21.3321 2.19439C18.9417 1.77097 17.3403 2.1184 16.418 2.48463C16.2343 2.55752 15.7616 2.76232 15.3413 3.08806C14.8781 3.44705 14.6195 3.83827 14.5729 4.25063C14.5107 4.80263 14.9111 5.51574 17.1736 5.778C19.5691 6.05575 21.8071 6.01618 23.7815 5.98158C23.9879 5.97791 24.1903 5.9744 24.3885 5.97129C25.6392 5.95309 26.6977 6.25419 27.1518 6.7604C27.6748 7.34349 27.706 8.12411 27.5737 8.61533C27.5355 8.7569 27.4579 8.97014 27.3648 9.10509C27.2212 9.29945 27.0636 9.35864 26.7741 9.28221C25.8498 9.03804 24.2011 8.4948 23.4017 8.22502C22.6897 7.9847 22.1274 7.79486 21.6506 7.67794C20.235 7.33099 19.7929 7.56075 18.8426 8.16137C18.6135 8.30604 18.3806 8.46467 18.111 8.64824C17.7209 8.91383 17.2787 9.21499 16.6906 9.58212C16.3358 9.80357 15.8708 10.0595 15.3785 10.3304C14.8778 10.6059 14.3601 10.8908 13.8531 11.1946C12.2267 12.1493 11.9671 13.4294 11.6667 14.9116C11.4535 15.9633 11.2118 17.1553 10.4085 18.3624C10.3205 18.4949 9.62425 19.3394 9.47613 19.5791C8.92594 20.4636 8.63032 21.2268 8.7469 22.5103C8.83407 23.4698 8.50578 24.305 8.18845 25.1127C7.93857 25.7483 7.70271 26.3487 7.66376 26.9917C7.63436 27.3893 7.64866 27.7608 7.66257 28.1202C7.68564 28.7164 7.69451 29.3106 7.51259 29.8253C7.37289 30.2204 7.01859 30.6094 6.88116 30.9917C6.70443 31.4831 6.58068 32.1825 6.58068 32.8248C6.56954 33.3658 6.16759 33.7635 5.74217 34.1847C5.36719 34.5558 4.97479 34.9457 4.83206 35.4504C4.81303 35.5176 4.80037 35.5687 4.77554 35.6088C4.73848 35.6685 4.68301 35.7067 4.60862 35.7595C4.46477 35.8618 4.29084 35.9961 4.10081 36.3783C3.94043 36.7009 3.9865 37.2761 4.13322 37.5558C4.15584 37.5989 4.21906 37.7005 4.31628 37.7117C4.38215 37.7193 4.44835 37.6843 4.51378 37.6082C4.51378 37.6082 4.92928 37.1274 5.09122 36.9832C5.14801 36.9341 5.21565 36.9431 5.25431 36.972C5.29993 37.0064 5.31033 37.0636 5.28213 37.1253C5.26565 37.1611 5.01517 37.6071 4.86883 37.9831L4.8654 37.9924C4.8455 38.0457 4.82083 38.112 4.85633 38.1671C4.8909 38.2205 4.97225 38.2498 5.11289 38.2591C5.17489 38.2615 5.23468 38.2627 5.29252 38.2627C6.06249 38.2627 6.46739 38.0581 6.67554 37.8781C6.75678 37.7912 6.77295 37.7536 6.79969 37.6913C6.80676 37.675 6.81456 37.6567 6.8253 37.6334C6.9793 37.2204 7.08259 36.743 7.0948 36.3867C7.0948 36.2357 7.13765 36.1928 7.24145 36.089C7.6468 35.68 7.64719 35.1398 7.64765 34.6172C7.64804 34.1369 7.64838 33.6403 7.96418 33.2488C8.82531 32.2852 9.27278 31.1587 9.7056 30.0696C10.1519 28.9458 10.6135 27.7838 11.5297 26.8148C11.7606 26.5777 11.9869 26.4484 12.1362 26.4725C12.2091 26.4836 12.2669 26.5304 12.3083 26.6122C12.5044 26.9748 12.4455 27.4626 12.3884 27.9345C12.3238 28.4678 12.2629 28.9716 12.5455 29.3008C12.7343 29.5454 12.7852 29.8031 12.6923 30.0473C12.5717 30.433 12.2043 31.6068 11.3286 32.1262C11.3075 32.1387 11.0768 32.3031 11.0047 32.3729C10.967 32.4095 10.9395 32.4586 10.9076 32.5155C10.8309 32.6524 10.7355 32.8227 10.4346 32.9116C10.105 32.9946 9.79481 33.1948 9.62544 33.4342C9.16225 34.0885 9.18215 34.8985 9.22568 35.1308C9.24259 35.2208 9.27294 35.3392 9.35916 35.4567C9.41174 35.5286 9.47279 35.5713 9.53572 35.5803C9.58744 35.5878 9.63912 35.5728 9.68802 35.5356C9.73901 35.4967 9.79922 35.4271 9.87543 35.3388C9.99505 35.2004 10.1439 35.0281 10.3314 34.8903C10.3915 34.8462 10.4507 34.8565 10.4859 34.8811C10.5188 34.904 10.5339 34.9405 10.5244 34.9742C10.5069 35.0352 10.4511 35.1233 10.3801 35.2349C10.2901 35.3765 10.1781 35.5529 10.0898 35.7607C10.0679 35.807 10.0651 35.8498 10.0814 35.8877C10.1068 35.9466 10.1699 35.9711 10.1889 35.9773C10.7462 36.1551 11.5788 35.9439 12.0448 35.5061C12.2784 35.2864 12.392 34.9954 12.392 34.6163C12.392 34.5202 12.4378 34.3708 12.5374 34.2713C12.8656 33.9903 13.0016 33.5516 13.1455 33.0871C13.1797 32.9768 13.2151 32.8627 13.2533 32.7501C13.4019 32.3125 13.5978 31.9365 14.0709 31.5227C14.685 30.9488 14.9624 30.4073 15.1375 30.0737C15.3157 29.7148 15.3547 29.5145 15.485 29.3052C15.7412 28.901 16.6061 28.8247 16.9256 29.0133C17.0581 29.0917 17.0876 29.2 17.0134 29.3354C16.9649 29.4232 16.5087 30.1615 16.294 30.666C16.1886 30.9136 15.9504 31.0061 15.8086 31.089C14.952 31.5898 14.7958 32.5328 14.7708 32.9193C14.7631 33.0399 14.7764 33.2007 14.8371 33.2904C14.8723 33.3423 14.9216 33.3757 14.9758 33.3845C15.0293 33.3932 15.0841 33.3777 15.1343 33.3393C15.1843 33.3012 15.6481 32.8331 15.7036 32.7844C15.7803 32.7172 15.8477 32.7284 15.8819 32.7587C15.9183 32.7908 15.9336 32.8547 15.8859 32.9253C15.8213 33.0208 15.5011 33.503 15.5386 33.6087C15.6022 33.7873 15.7844 33.7838 15.9669 33.7855C17.4365 33.6608 17.9561 32.6149 17.9561 32.6149C17.9917 32.554 18.0358 32.4736 18.0125 32.256C17.9705 31.8636 17.8778 30.5039 18.664 29.6572C18.8979 29.3977 19.035 29.573 19.0881 29.6889C19.1833 29.897 19.324 30.2574 19.404 30.4382C19.5738 30.8218 19.6899 31.105 19.8856 31.4847C20.2158 32.1254 20.712 32.214 21.3261 32.1368C22.1202 32.0371 22.6677 32.1009 23.2013 32.1534C23.6545 32.1911 23.905 32.2215 24.238 31.917C24.4195 31.7511 24.7676 31.4472 25.0016 31.1165C25.1497 30.9073 25.1956 30.7749 25.1582 30.4494C25.0483 28.8149 25.8983 27.395 27.4304 26.6516C27.6603 26.5586 27.9157 26.5871 28.0717 26.7967C28.4154 27.3067 29.2149 28.612 29.2149 29.72C29.2149 29.8245 29.1737 29.9398 29.126 30.0731C29.0176 30.376 28.8828 30.7527 29.1333 31.2667C29.1489 31.7115 28.9842 32.0589 28.8388 32.3655C28.6317 32.802 28.4683 33.1467 29.0345 33.4862C29.1946 33.582 29.4023 33.668 29.6693 33.7489C29.685 33.7536 29.7006 33.756 29.7154 33.756C29.7385 33.756 29.7597 33.7503 29.7769 33.7391C29.7965 33.7264 29.8086 33.7078 29.8111 33.6871C29.8267 33.559 29.8419 33.1143 29.8659 33.0093C29.8755 32.9675 29.8971 32.9171 29.9454 32.9142C29.9903 32.9116 30.0351 32.9483 30.0478 32.9838C30.0929 33.0907 30.2081 33.5257 30.2399 33.5947C30.2672 33.6542 30.2994 33.6945 30.3429 33.7072C30.57 33.7727 30.8802 33.3823 30.9962 33.1813C31.1964 32.7671 31.1143 32.1516 30.7879 31.6153C30.7399 31.5122 30.7331 31.4708 30.7325 31.3771C30.8532 30.8889 30.7653 30.6417 30.6723 30.3799C30.6186 30.2289 30.5645 30.0727 30.5401 29.8585C30.4523 29.0897 30.9227 26.6564 30.9669 26.4064C31.0469 25.9538 31.1132 25.631 31.1419 25.2985C31.1697 24.9769 31.0379 24.6002 30.8142 24.361C30.6091 24.142 30.3619 23.9412 30.1228 23.747C29.9121 23.5757 29.7128 23.4139 29.55 23.2471C29.2866 22.9773 29.2027 22.5835 29.2051 22.4724C29.206 22.4423 29.2115 22.423 29.2221 22.4135C29.2303 22.406 29.2437 22.4031 29.2632 22.4045C29.626 22.4306 29.9164 22.6711 30.284 22.9755C30.613 23.248 30.986 23.5569 31.5084 23.7886C32.5406 24.2465 33.5204 24.1788 34.5045 23.5818C34.9229 23.2851 35.0521 23.0306 35.0729 22.9953C35.0991 22.9509 35.0611 22.8221 34.9413 22.8906ZM12.0683 18.8078C12.1281 18.3317 12.4796 17.8245 12.6338 17.2299C12.8535 16.5587 12.9142 15.3857 13.0336 14.4558C13.0932 13.9923 13.2704 13.7962 13.605 13.755C13.826 13.7352 14.0563 13.9274 14.1751 14.5822C14.5868 17.2636 15.3921 17.6345 15.8598 18.3447C15.8683 18.3575 15.8764 18.3709 15.8836 18.3844C16.0034 18.6071 16.0418 18.8144 15.8539 18.9647C15.7436 19.0529 15.377 19.1848 14.7534 18.8088C14.0051 18.3576 13.8922 17.8717 12.6517 18.8644C12.6517 18.8644 12.4857 18.9934 12.3265 19.0288C12.1918 19.0588 12.0432 19.0065 12.0683 18.8078ZM18.5627 28.6443C18.5181 28.6721 18.4679 28.6531 18.3952 28.6066C17.9024 28.2916 16.5367 28.0431 15.3839 28.505C14.1979 28.9803 13.1116 29.6514 13.0388 28.4784C13.0245 27.4388 13.246 26.986 12.8845 26.3674C12.8845 26.3674 12.869 26.3465 12.8531 26.3212C12.822 26.272 12.8597 26.2612 12.8715 26.2602C14.5375 26.13 14.9822 25.6094 15.086 25.4272C15.1088 25.3872 15.0788 25.3441 15.0364 25.3394C14.6537 25.297 12.7456 25.2397 11.9783 25.3507C10.6287 25.5458 9.72217 27.5785 9.54685 27.7706C9.34435 27.9926 9.08898 27.8227 9.08898 27.6204C9.08898 27.2812 9.28923 25.635 9.42219 25.0643C9.63273 24.1608 9.92286 23.4895 10.8042 23.3539C11.4219 23.2588 12.9377 23.0983 12.8334 22.688C12.7469 22.3488 12.7038 22.0834 12.7029 21.9334C12.7018 21.733 12.8043 21.6929 13.0072 21.738C13.1573 21.7713 13.3584 21.8604 13.6161 21.921C15.523 22.3697 16.5 22.0123 17.6364 21.5073C17.6685 21.493 18.0912 21.3029 18.117 21.2886C18.3218 21.1745 18.5791 21.3806 18.4652 21.6243C18.4048 21.7533 18.3231 21.813 18.1481 21.9815C17.7728 22.3429 16.3727 23.4906 17.2162 25.4309C17.8738 26.9437 18.0651 27.3354 18.5318 28.3672C18.6073 28.5343 18.6183 28.6097 18.5627 28.6443ZM22.1078 31.262C22.0148 31.4066 21.8715 31.5093 21.5929 31.5093C21.2503 31.5093 21.0079 31.4067 20.8625 31.2518C20.5643 30.9339 20.5272 30.4987 20.6002 30.2137C20.6464 30.0332 20.7548 29.9145 20.871 29.8801C20.922 29.8632 20.9494 29.867 20.9747 29.8999C21.0264 29.9828 21.2116 30.276 21.2543 30.3369C21.3042 30.4081 21.3948 30.471 21.4686 30.5005C21.6078 30.5563 21.7856 30.6046 21.8795 30.6473C22.1671 30.7715 22.2334 31.0667 22.1078 31.262ZM27.6056 25.9123C27.5694 25.971 27.5371 25.9805 27.4885 26.0026C25.7612 26.6561 24.3881 28.4195 24.6372 30.5382C24.6421 30.6489 24.6076 30.8041 24.5033 30.9084C24.5033 30.9084 24.1408 31.2767 23.9126 31.4336C23.8347 31.4872 23.7468 31.5309 23.5429 31.5178C23.2235 31.4974 22.7735 31.4691 22.7735 31.4691C22.6528 31.4489 22.7044 31.344 22.7136 31.3209C22.7222 31.299 22.7306 31.2736 22.7372 31.2439C22.8026 30.926 22.7559 30.4806 22.309 30.3139C22.2448 30.2777 22.2851 30.2188 22.2929 30.1996C22.4847 29.7272 22.7246 29.1425 22.9171 28.3228C23.0334 27.8272 22.962 27.5282 22.7882 27.1719C22.7498 27.093 22.6994 27.0201 22.6421 26.9536L22.3704 26.5933C22.2946 26.5055 22.3145 26.4129 22.4237 26.3739L22.8068 26.2763C22.9002 26.2429 22.8912 26.1012 22.8012 26.0785L22.6036 26.0152C22.4166 25.9382 22.3026 25.7889 22.2187 25.6736C22.2049 25.6547 22.1808 25.6165 22.1578 25.5749C22.1158 25.499 22.0853 25.4171 22.0678 25.332L22.0448 25.2202C22.0422 25.1633 21.9527 25.1626 21.9135 25.2018C21.6113 25.5052 21.5179 25.9711 21.7398 26.3413C22.0506 26.86 22.0381 26.8089 22.315 27.2011C22.4065 27.3307 22.4612 27.4362 22.4915 27.5643C22.5333 27.7412 22.5214 28.1899 22.4028 28.5101L22.0885 29.4648C21.8988 29.8918 21.6871 29.7888 21.567 29.7089C21.4121 29.606 21.2678 29.3392 21.1896 29.0561C21.1896 29.0561 20.9735 28.2592 20.9809 27.1999C20.9666 27.0718 20.8794 26.8626 20.6014 27.0458L19.862 27.6594C19.7576 27.715 19.5764 27.6846 19.6131 27.444C19.6131 27.444 20.1446 25.0734 20.7169 23.7379C21.1465 22.6486 20.6682 22.0346 20.098 21.3602C19.1666 20.1715 18.9579 18.5726 21.1269 19.4485C21.7093 19.7148 21.9174 19.3696 22.6358 19.3073C23.1511 19.2628 23.3205 19.4713 23.3646 19.5595C23.4039 19.6384 23.4175 19.7256 23.4221 19.7713C23.4241 19.7912 23.4175 19.8043 23.3958 19.8046C22.1797 19.8738 20.7286 20.884 21.8493 22.4691C22.9498 24.0221 25.9784 24.5443 27.3309 23.0636C27.3487 23.0437 27.3533 22.9991 27.3261 22.9766C27.3121 22.9649 27.2882 22.9542 27.2567 22.9661C26.9609 23.0782 26.6887 23.1628 26.4155 23.2077C25.7694 23.314 24.4006 23.2365 23.7535 22.498C23.3832 22.0756 23.3931 21.5878 24.019 21.5132C24.3674 21.4853 24.5379 21.5494 24.6888 21.5522C25.0791 21.5469 25.1592 21.1565 25.0788 20.98C25.0119 20.8109 24.8563 20.6064 24.6377 20.4287C24.4358 20.2852 24.545 20.1349 24.6763 20.1386C25.929 20.2099 27.1265 20.4267 27.5782 21.9304C27.5955 21.9867 27.6262 22.1767 27.674 22.2476C27.771 22.3914 27.9396 22.4994 28.1254 22.6615C28.5801 23.0579 28.988 23.7647 27.6056 25.9123ZM29.2328 24.9825C29.4528 24.5224 29.7515 24.8309 29.894 25.336C30.075 25.9776 30.101 27.0098 30.0247 27.5422C29.9251 28.2366 29.5986 28.0975 29.424 27.8505C29.1482 27.4605 28.8498 26.9414 28.6418 26.5851C28.6355 26.5743 28.6295 26.5633 28.6241 26.5519C28.5274 26.3516 28.5128 26.1929 28.6142 26.0441C28.7184 25.8842 29.1317 25.194 29.2328 24.9825Z" fill="white"/>
</g>
</svg>
